<mxfile host="app.diagrams.net" agent="Mozilla/5.0 (Windows NT 10.0; Win64; x64) AppleWebKit/537.36 (KHTML, like Gecko) Chrome/127.0.0.0 Safari/537.36" version="24.7.10">
  <diagram id="kgpKYQtTHZ0yAKxKKP6v" name="Page-1">
    <mxGraphModel dx="1395" dy="622" grid="1" gridSize="10" guides="1" tooltips="1" connect="1" arrows="1" fold="1" page="1" pageScale="1" pageWidth="850" pageHeight="1100" math="0" shadow="0">
      <root>
        <mxCell id="0" />
        <mxCell id="1" parent="0" />
        <mxCell id="3nuBFxr9cyL0pnOWT2aG-1" value="ITOM DataLake Adapter" style="shape=table;childLayout=tableLayout;startSize=40;collapsible=0;recursiveResize=0;expand=0;fillColor=none;fontStyle=1" parent="1" vertex="1">
          <mxGeometry x="100" y="20" width="670" height="450" as="geometry" />
        </mxCell>
        <mxCell id="3nuBFxr9cyL0pnOWT2aG-3" value="Customer" style="shape=tableRow;horizontal=0;swimlaneHead=0;swimlaneBody=0;top=0;left=0;bottom=0;right=0;fillColor=none;points=[[0,0.5],[1,0.5]];portConstraint=eastwest;startSize=40;collapsible=0;recursiveResize=0;expand=0;fontStyle=1;" parent="3nuBFxr9cyL0pnOWT2aG-1" vertex="1">
          <mxGeometry y="40" width="670" height="410" as="geometry" />
        </mxCell>
        <mxCell id="vlgKqU3BJfB3wP-u6Uwp-19" value="" style="edgeStyle=orthogonalEdgeStyle;rounded=0;orthogonalLoop=1;jettySize=auto;html=1;" parent="3nuBFxr9cyL0pnOWT2aG-3" source="vlgKqU3BJfB3wP-u6Uwp-16" target="vlgKqU3BJfB3wP-u6Uwp-18" edge="1">
          <mxGeometry relative="1" as="geometry">
            <Array as="points">
              <mxPoint x="270" y="225" />
              <mxPoint x="270" y="75" />
            </Array>
          </mxGeometry>
        </mxCell>
        <mxCell id="3nuBFxr9cyL0pnOWT2aG-4" value="UCMDB" style="swimlane;swimlaneHead=0;swimlaneBody=0;connectable=0;fillColor=none;startSize=40;collapsible=0;recursiveResize=0;expand=0;fontStyle=1;" parent="3nuBFxr9cyL0pnOWT2aG-3" vertex="1">
          <mxGeometry x="40" width="220" height="410" as="geometry">
            <mxRectangle width="220" height="410" as="alternateBounds" />
          </mxGeometry>
        </mxCell>
        <mxCell id="3nuBFxr9cyL0pnOWT2aG-5" style="edgeStyle=orthogonalEdgeStyle;rounded=0;orthogonalLoop=1;jettySize=auto;html=1;" parent="3nuBFxr9cyL0pnOWT2aG-4" source="3nuBFxr9cyL0pnOWT2aG-6" target="3nuBFxr9cyL0pnOWT2aG-7" edge="1">
          <mxGeometry relative="1" as="geometry" />
        </mxCell>
        <mxCell id="3nuBFxr9cyL0pnOWT2aG-6" value="Push Trigger&lt;br&gt;&lt;font style=&quot;font-size: 8px;&quot;&gt;scheduler/manually&lt;/font&gt;" style="rounded=1;whiteSpace=wrap;html=1;arcSize=50;" parent="3nuBFxr9cyL0pnOWT2aG-4" vertex="1">
          <mxGeometry x="20" y="60" width="90" height="40" as="geometry" />
        </mxCell>
        <mxCell id="vlgKqU3BJfB3wP-u6Uwp-5" value="" style="edgeStyle=orthogonalEdgeStyle;rounded=0;orthogonalLoop=1;jettySize=auto;html=1;" parent="3nuBFxr9cyL0pnOWT2aG-4" source="3nuBFxr9cyL0pnOWT2aG-7" target="vlgKqU3BJfB3wP-u6Uwp-4" edge="1">
          <mxGeometry relative="1" as="geometry" />
        </mxCell>
        <mxCell id="3nuBFxr9cyL0pnOWT2aG-7" value="Lock TQL" style="rounded=0;whiteSpace=wrap;html=1;" parent="3nuBFxr9cyL0pnOWT2aG-4" vertex="1">
          <mxGeometry x="20" y="120" width="90" height="40" as="geometry" />
        </mxCell>
        <mxCell id="vlgKqU3BJfB3wP-u6Uwp-7" value="" style="edgeStyle=orthogonalEdgeStyle;rounded=0;orthogonalLoop=1;jettySize=auto;html=1;" parent="3nuBFxr9cyL0pnOWT2aG-4" source="vlgKqU3BJfB3wP-u6Uwp-4" target="vlgKqU3BJfB3wP-u6Uwp-6" edge="1">
          <mxGeometry relative="1" as="geometry" />
        </mxCell>
        <mxCell id="vlgKqU3BJfB3wP-u6Uwp-4" value="Adhoc Query" style="rounded=0;whiteSpace=wrap;html=1;" parent="3nuBFxr9cyL0pnOWT2aG-4" vertex="1">
          <mxGeometry x="20" y="180" width="90" height="40" as="geometry" />
        </mxCell>
        <mxCell id="vlgKqU3BJfB3wP-u6Uwp-9" value="" style="edgeStyle=orthogonalEdgeStyle;rounded=0;orthogonalLoop=1;jettySize=auto;html=1;" parent="3nuBFxr9cyL0pnOWT2aG-4" source="vlgKqU3BJfB3wP-u6Uwp-6" target="vlgKqU3BJfB3wP-u6Uwp-8" edge="1">
          <mxGeometry relative="1" as="geometry" />
        </mxCell>
        <mxCell id="vlgKqU3BJfB3wP-u6Uwp-6" value="Release TQL" style="rounded=0;whiteSpace=wrap;html=1;" parent="3nuBFxr9cyL0pnOWT2aG-4" vertex="1">
          <mxGeometry x="20" y="260" width="90" height="40" as="geometry" />
        </mxCell>
        <mxCell id="vlgKqU3BJfB3wP-u6Uwp-8" value="Job Status Update" style="ellipse;whiteSpace=wrap;html=1;rounded=0;" parent="3nuBFxr9cyL0pnOWT2aG-4" vertex="1">
          <mxGeometry x="36" y="340" width="58" height="60" as="geometry" />
        </mxCell>
        <mxCell id="vlgKqU3BJfB3wP-u6Uwp-15" value="" style="edgeStyle=orthogonalEdgeStyle;rounded=0;orthogonalLoop=1;jettySize=auto;html=1;" parent="3nuBFxr9cyL0pnOWT2aG-4" source="vlgKqU3BJfB3wP-u6Uwp-10" target="vlgKqU3BJfB3wP-u6Uwp-14" edge="1">
          <mxGeometry relative="1" as="geometry" />
        </mxCell>
        <mxCell id="vlgKqU3BJfB3wP-u6Uwp-10" value="Delta Calculate" style="whiteSpace=wrap;html=1;rounded=0;" parent="3nuBFxr9cyL0pnOWT2aG-4" vertex="1">
          <mxGeometry x="150" y="110" width="60" height="30" as="geometry" />
        </mxCell>
        <mxCell id="vlgKqU3BJfB3wP-u6Uwp-11" value="" style="edgeStyle=orthogonalEdgeStyle;rounded=0;orthogonalLoop=1;jettySize=auto;html=1;" parent="3nuBFxr9cyL0pnOWT2aG-4" source="vlgKqU3BJfB3wP-u6Uwp-4" target="vlgKqU3BJfB3wP-u6Uwp-10" edge="1">
          <mxGeometry relative="1" as="geometry">
            <Array as="points">
              <mxPoint x="120" y="200" />
              <mxPoint x="120" y="125" />
            </Array>
          </mxGeometry>
        </mxCell>
        <mxCell id="vlgKqU3BJfB3wP-u6Uwp-17" value="" style="edgeStyle=orthogonalEdgeStyle;rounded=0;orthogonalLoop=1;jettySize=auto;html=1;" parent="3nuBFxr9cyL0pnOWT2aG-4" source="vlgKqU3BJfB3wP-u6Uwp-14" target="vlgKqU3BJfB3wP-u6Uwp-16" edge="1">
          <mxGeometry relative="1" as="geometry" />
        </mxCell>
        <mxCell id="vlgKqU3BJfB3wP-u6Uwp-14" value="Data Trunk" style="whiteSpace=wrap;html=1;rounded=0;" parent="3nuBFxr9cyL0pnOWT2aG-4" vertex="1">
          <mxGeometry x="150" y="160" width="60" height="30" as="geometry" />
        </mxCell>
        <mxCell id="vlgKqU3BJfB3wP-u6Uwp-16" value="Layout Fullfilment" style="whiteSpace=wrap;html=1;rounded=0;" parent="3nuBFxr9cyL0pnOWT2aG-4" vertex="1">
          <mxGeometry x="150" y="210" width="60" height="30" as="geometry" />
        </mxCell>
        <mxCell id="3nuBFxr9cyL0pnOWT2aG-8" value="UD Probe" style="swimlane;swimlaneHead=0;swimlaneBody=0;connectable=0;fillColor=none;startSize=40;collapsible=0;recursiveResize=0;expand=0;fontStyle=1;" parent="3nuBFxr9cyL0pnOWT2aG-3" vertex="1">
          <mxGeometry x="260" width="280" height="410" as="geometry">
            <mxRectangle width="280" height="410" as="alternateBounds" />
          </mxGeometry>
        </mxCell>
        <mxCell id="vlgKqU3BJfB3wP-u6Uwp-22" value="Java Future" style="swimlane;whiteSpace=wrap;html=1;" parent="3nuBFxr9cyL0pnOWT2aG-8" vertex="1">
          <mxGeometry x="20" y="260" width="260" height="140" as="geometry" />
        </mxCell>
        <mxCell id="vlgKqU3BJfB3wP-u6Uwp-29" value="Http Client Post" style="whiteSpace=wrap;html=1;rounded=0;" parent="vlgKqU3BJfB3wP-u6Uwp-22" vertex="1">
          <mxGeometry y="40" width="90" height="30" as="geometry" />
        </mxCell>
        <mxCell id="vlgKqU3BJfB3wP-u6Uwp-32" value="&lt;font style=&quot;font-size: 12px;&quot;&gt;Authentication token renew&lt;/font&gt;&lt;div&gt;&lt;font style=&quot;font-size: 12px;&quot;&gt;&lt;font style=&quot;&quot;&gt;Status Update in Trunk base&lt;/font&gt;&lt;br&gt;&lt;/font&gt;&lt;/div&gt;&lt;div&gt;&lt;font style=&quot;font-size: 12px;&quot;&gt;Tenant awareness&lt;/font&gt;&lt;/div&gt;" style="text;strokeColor=none;fillColor=none;align=left;verticalAlign=middle;spacingLeft=4;spacingRight=4;overflow=hidden;points=[[0,0.5],[1,0.5]];portConstraint=eastwest;rotatable=0;whiteSpace=wrap;html=1;" parent="vlgKqU3BJfB3wP-u6Uwp-22" vertex="1">
          <mxGeometry x="90" y="50" width="170" height="50" as="geometry" />
        </mxCell>
        <mxCell id="vlgKqU3BJfB3wP-u6Uwp-34" value="&lt;span style=&quot;color: rgb(68, 68, 68); font-family: &amp;quot;Source Code Pro&amp;quot;, Consolas, &amp;quot;Bitstream Vera Sans Mono&amp;quot;, &amp;quot;Courier New&amp;quot;, Courier, monospace; font-size: 14px; text-align: start; white-space-collapse: preserve; background-color: rgb(250, 250, 250);&quot;&gt;future.isDone()&lt;/span&gt;" style="rounded=0;whiteSpace=wrap;html=1;" parent="vlgKqU3BJfB3wP-u6Uwp-22" vertex="1">
          <mxGeometry x="55" y="100" width="120" height="20" as="geometry" />
        </mxCell>
        <mxCell id="vlgKqU3BJfB3wP-u6Uwp-44" value="&lt;font style=&quot;font-size: 8px;&quot;&gt;Configurable Thread number&lt;/font&gt;" style="text;html=1;align=center;verticalAlign=middle;whiteSpace=wrap;rounded=0;" parent="vlgKqU3BJfB3wP-u6Uwp-22" vertex="1">
          <mxGeometry x="50" y="16" width="120" height="30" as="geometry" />
        </mxCell>
        <mxCell id="vlgKqU3BJfB3wP-u6Uwp-18" value="Payload Convert" style="whiteSpace=wrap;html=1;rounded=0;" parent="3nuBFxr9cyL0pnOWT2aG-8" vertex="1">
          <mxGeometry x="30" y="60" width="90" height="30" as="geometry" />
        </mxCell>
        <mxCell id="vlgKqU3BJfB3wP-u6Uwp-21" value="" style="edgeStyle=orthogonalEdgeStyle;rounded=0;orthogonalLoop=1;jettySize=auto;html=1;" parent="3nuBFxr9cyL0pnOWT2aG-8" source="vlgKqU3BJfB3wP-u6Uwp-18" target="vlgKqU3BJfB3wP-u6Uwp-20" edge="1">
          <mxGeometry relative="1" as="geometry" />
        </mxCell>
        <mxCell id="vlgKqU3BJfB3wP-u6Uwp-20" value="Group by&lt;br&gt;&lt;font style=&quot;font-size: 10px;&quot;&gt;MonitoredCollection&lt;/font&gt;" style="whiteSpace=wrap;html=1;rounded=0;" parent="3nuBFxr9cyL0pnOWT2aG-8" vertex="1">
          <mxGeometry x="30" y="110" width="90" height="30" as="geometry" />
        </mxCell>
        <mxCell id="vlgKqU3BJfB3wP-u6Uwp-24" value="" style="edgeStyle=orthogonalEdgeStyle;rounded=0;orthogonalLoop=1;jettySize=auto;html=1;" parent="3nuBFxr9cyL0pnOWT2aG-8" source="vlgKqU3BJfB3wP-u6Uwp-20" target="vlgKqU3BJfB3wP-u6Uwp-23" edge="1">
          <mxGeometry relative="1" as="geometry" />
        </mxCell>
        <mxCell id="vlgKqU3BJfB3wP-u6Uwp-23" value="Payload Trunk Controller" style="whiteSpace=wrap;html=1;rounded=0;" parent="3nuBFxr9cyL0pnOWT2aG-8" vertex="1">
          <mxGeometry x="30" y="160" width="90" height="30" as="geometry" />
        </mxCell>
        <mxCell id="vlgKqU3BJfB3wP-u6Uwp-30" value="" style="edgeStyle=orthogonalEdgeStyle;rounded=0;orthogonalLoop=1;jettySize=auto;html=1;" parent="3nuBFxr9cyL0pnOWT2aG-8" source="vlgKqU3BJfB3wP-u6Uwp-23" target="vlgKqU3BJfB3wP-u6Uwp-29" edge="1">
          <mxGeometry relative="1" as="geometry">
            <Array as="points">
              <mxPoint x="65" y="210" />
              <mxPoint x="65" y="210" />
            </Array>
          </mxGeometry>
        </mxCell>
        <mxCell id="vlgKqU3BJfB3wP-u6Uwp-45" value="&lt;font style=&quot;font-size: 8px;&quot;&gt;Configurable Record Size&lt;/font&gt;" style="text;html=1;align=center;verticalAlign=middle;whiteSpace=wrap;rounded=0;" parent="3nuBFxr9cyL0pnOWT2aG-8" vertex="1">
          <mxGeometry x="80" y="140" width="120" height="30" as="geometry" />
        </mxCell>
        <mxCell id="3nuBFxr9cyL0pnOWT2aG-11" value="ODL DateLake" style="swimlane;swimlaneHead=0;swimlaneBody=0;connectable=0;fillColor=none;startSize=40;collapsible=0;recursiveResize=0;expand=0;fontStyle=1;" parent="3nuBFxr9cyL0pnOWT2aG-3" vertex="1">
          <mxGeometry x="540" width="130" height="410" as="geometry">
            <mxRectangle width="130" height="410" as="alternateBounds" />
          </mxGeometry>
        </mxCell>
        <mxCell id="3nuBFxr9cyL0pnOWT2aG-13" value="streaming interface" style="rounded=0;whiteSpace=wrap;html=1;" parent="3nuBFxr9cyL0pnOWT2aG-11" vertex="1">
          <mxGeometry x="20" y="220" width="90" height="40" as="geometry" />
        </mxCell>
        <mxCell id="vlgKqU3BJfB3wP-u6Uwp-33" value="IdM Authentication api" style="rounded=0;whiteSpace=wrap;html=1;" parent="3nuBFxr9cyL0pnOWT2aG-11" vertex="1">
          <mxGeometry x="20" y="350" width="90" height="50" as="geometry" />
        </mxCell>
        <mxCell id="vlgKqU3BJfB3wP-u6Uwp-46" value="ingestion dataset setup" style="rounded=0;whiteSpace=wrap;html=1;" parent="3nuBFxr9cyL0pnOWT2aG-11" vertex="1">
          <mxGeometry x="20" y="150" width="90" height="40" as="geometry" />
        </mxCell>
        <mxCell id="vlgKqU3BJfB3wP-u6Uwp-53" style="edgeStyle=orthogonalEdgeStyle;rounded=0;orthogonalLoop=1;jettySize=auto;html=1;exitX=0.5;exitY=0.5;exitDx=0;exitDy=0;exitPerimeter=0;" parent="3nuBFxr9cyL0pnOWT2aG-11" source="vlgKqU3BJfB3wP-u6Uwp-47" target="vlgKqU3BJfB3wP-u6Uwp-46" edge="1">
          <mxGeometry relative="1" as="geometry" />
        </mxCell>
        <mxCell id="vlgKqU3BJfB3wP-u6Uwp-47" value="Manually creation" style="shape=umlActor;verticalLabelPosition=bottom;verticalAlign=top;html=1;outlineConnect=0;strokeColor=#33FFA0;fillColor=#146AFF;" parent="3nuBFxr9cyL0pnOWT2aG-11" vertex="1">
          <mxGeometry x="55" y="60" width="20" height="40" as="geometry" />
        </mxCell>
        <mxCell id="vlgKqU3BJfB3wP-u6Uwp-31" style="edgeStyle=orthogonalEdgeStyle;rounded=0;orthogonalLoop=1;jettySize=auto;html=1;entryX=0.008;entryY=0.357;entryDx=0;entryDy=0;entryPerimeter=0;" parent="3nuBFxr9cyL0pnOWT2aG-3" source="vlgKqU3BJfB3wP-u6Uwp-29" target="3nuBFxr9cyL0pnOWT2aG-13" edge="1">
          <mxGeometry relative="1" as="geometry" />
        </mxCell>
        <mxCell id="vlgKqU3BJfB3wP-u6Uwp-40" value="" style="endArrow=none;dashed=1;html=1;dashPattern=1 3;strokeWidth=2;rounded=0;entryX=0.027;entryY=0.857;entryDx=0;entryDy=0;entryPerimeter=0;exitX=0.948;exitY=0.19;exitDx=0;exitDy=0;exitPerimeter=0;" parent="3nuBFxr9cyL0pnOWT2aG-3" source="vlgKqU3BJfB3wP-u6Uwp-8" target="vlgKqU3BJfB3wP-u6Uwp-32" edge="1">
          <mxGeometry width="50" height="50" relative="1" as="geometry">
            <mxPoint x="160" y="340" as="sourcePoint" />
            <mxPoint x="370" y="290" as="targetPoint" />
          </mxGeometry>
        </mxCell>
        <mxCell id="vlgKqU3BJfB3wP-u6Uwp-41" value="" style="edgeStyle=orthogonalEdgeStyle;rounded=0;orthogonalLoop=1;jettySize=auto;html=1;exitX=0;exitY=0.5;exitDx=0;exitDy=0;entryX=0;entryY=0.5;entryDx=0;entryDy=0;" parent="3nuBFxr9cyL0pnOWT2aG-3" source="vlgKqU3BJfB3wP-u6Uwp-34" target="vlgKqU3BJfB3wP-u6Uwp-14" edge="1">
          <mxGeometry relative="1" as="geometry">
            <mxPoint x="320" y="320" as="sourcePoint" />
            <mxPoint x="220" y="190" as="targetPoint" />
          </mxGeometry>
        </mxCell>
        <mxCell id="vlgKqU3BJfB3wP-u6Uwp-57" value="" style="endArrow=classic;startArrow=classic;html=1;rounded=0;exitX=1.015;exitY=0.243;exitDx=0;exitDy=0;exitPerimeter=0;" parent="1" source="vlgKqU3BJfB3wP-u6Uwp-32" edge="1">
          <mxGeometry width="100" height="100" relative="1" as="geometry">
            <mxPoint x="160" y="430" as="sourcePoint" />
            <mxPoint x="710" y="400" as="targetPoint" />
          </mxGeometry>
        </mxCell>
      </root>
    </mxGraphModel>
  </diagram>
</mxfile>
